<?xml version="1.0" encoding="utf-8"?>
<!-- Generator: Adobe Illustrator 26.5.0, SVG Export Plug-In . SVG Version: 6.00 Build 0)  -->
<svg version="1.1" id="Layer_1" xmlns="http://www.w3.org/2000/svg" xmlns:xlink="http://www.w3.org/1999/xlink" x="0px" y="0px"
	 viewBox="0 0 841.89 595.28" style="enable-background:new 0 0 841.89 595.28;" xml:space="preserve">
<style type="text/css">
	.st0{fill:#FFFFFF;}
</style>
<g id="_x30_VtBLf_00000038413963464869252280000015723257157052709522_">
	<g>
		<path class="st0" d="M712.84,31.33c0,107.4,0,214.8,0,322.21c-57.54,0.6-115.08,1.21-172.62,1.81c1.5,1.81,3.07,2.31,4.65,2.34
			c55.99,1.13,111.98,2.21,167.97,3.3c0,14.92,0,29.83,0,44.75c-3.27,3.24-6.73,6.3-9.75,9.76c-3.02,3.45-5.55,7.33-8.39,10.94
			c-1.98,2.52-4.04,4.99-6.24,7.32c-11.21,11.88-21.5,24.96-38.87,28.55c-3.1,0.64-5.99,2.36-8.93,3.68
			c-15.08,6.74-29.8,14.49-45.32,20c-16.53,5.87-30.93,14.57-44.45,25.12c0.17,0.66,0.34,1.32,0.5,1.98c43.1,0,86.21,0,129.31,0
			c0,0.38-0.01,0.75-0.01,1.13c-42.13,0.87-84.26,1.75-126.39,2.62c0,0.34,0,0.68,0,1.02c43.67,0,87.33,0,131,0
			c0,0.84,0,1.68,0,2.53c-14.64,0-29.28-0.13-43.91,0.03c-31.32,0.33-62.64,0.78-93.96,1.22c-8.82,0.12-10.03,1.28-10.2,9.85
			c-0.13,6.62-0.03,13.25-0.03,19.87c-0.7-0.02-1.39-0.03-2.09-0.05c0-34.53,0.17-69.06-0.06-103.59
			c-0.13-19.88-0.81-39.76-1.53-59.63c-0.09-2.38-2-4.69-3.07-7.03c-1.52,1.19-3.05,2.39-4.81,3.76c-2.73-1.91-5.01-7.28-10.57-1.93
			c0-109.51,0-219.03,0-329.55c-61.93,0-122.56,0-183.3,0c3.35,8.16,7.42,13.67,17.25,12.41c7.22-0.93,14.7,0.18,22.06,0.2
			c15.37,0.04,30.75,0.27,46.11-0.13c24.28-0.63,48.55-1.69,72.82-2.62c6.79-0.26,10.91,2.14,11.05,9.63
			c0.17,9.19,1.02,18.37,0.99,27.55c-0.13,49.68-0.07,99.37-0.81,149.04c-0.64,43.17-2.2,86.32-3.53,129.48
			c-0.1,3.16-1.65,6.28-2.53,9.41c-0.73-0.17-1.46-0.35-2.18-0.52c-0.49-2.03-0.97-4.07-1.68-6.99c-3.19,4.93-5.93,9.16-8.25,12.75
			c-2.73-0.81-5.33-2.17-7.99-2.27c-11.62-0.45-23.25-0.54-34.87-0.75c-1.69-0.03-3.95-0.66-4.99,0.17
			c-4.88,3.91-7.19,0.45-11.53-3.81c4.45,0,7.09,0.01,9.74,0c14.17-0.06,28.34-0.12,42.51-0.2c3.58-0.02,6.52,0.2,6.38-5.43
			c-0.75-30.06-1.26-60.13-1.33-90.2c-0.15-61.88,0.05-123.76,0.07-185.65c0-3.06-0.36-6.12-0.55-9.17
			c-0.86-0.12-1.72-0.23-2.58-0.35c-0.7,2.52-1.97,5.03-2,7.56c-0.07,6.2,0.68,12.42,0.65,18.62c-0.39,79.05-0.83,158.1-1.45,237.15
			c-0.03,3.87-1.88,7.72-2.48,10.02c-12.77-0.48-23.83-1.05-34.9-1.25c-7.69-0.14-15.4,0.44-23.09,0.29
			c-2.51-0.05-5.96-2.83-7.33-1.91c-5.68,3.8-6.43-0.23-7.14-3.93c-1.28-6.63-2.13-13.34-3.16-20.02
			c-0.43,6.24-0.71,12.43-0.35,18.58c0.33,5.63-2.12,7.21-7.4,7.46c-6.85,0.33-9.17-2.22-9.08-9.04
			c0.31-21.69,0.11-43.39,0.11-64.68c-2.16,1.48-3.61,3.29-5.2,3.42c-8.22,0.68-10.03-1.02-10.02-9.45
			c0.06-62.15,0.31-124.3,0.13-186.45c-0.02-7.7,2.47-9.69,9.83-9.63c32.07,0.26,64.14,0,96.21-0.08c2.46-0.01,4.91,0,7.37,0
			c-0.02-0.62-0.05-1.24-0.07-1.86c-35.51,0-71.03-0.03-106.54,0.02c-9.39,0.01-9.58,0.36-9.6,9.64
			c-0.15,63.14-0.32,126.28-0.52,189.42c-0.01,2.14-0.37,4.27-0.69,7.74c-5.3-1.09-9.76-2.09-14.27-2.89
			c-1.9-0.34-4.69-1.09-5.66-0.17c-3.94,3.75-7.2,8.11-4.63,14.95c5.5-0.92,10.83-1.74,16.13-2.73c5.6-1.05,8.47,0.48,8.08,6.84
			c-0.43,6.94-0.2,13.92-0.21,20.88c-0.02,13.64-0.01,27.29-0.01,40.93c-0.27-0.01-0.55-0.01-0.82-0.02
			c-0.79-5.99-1.58-11.98-2.38-17.97c-1.01,0.11-2.02,0.23-3.03,0.34c0.95,7.58,1.91,15.17,3.04,24.21
			c-3.75-1.45-6.05-2.34-8.03-3.1c-4.06,3.9-7.87,7.55-13.78,13.22c-0.62-12.71-1.35-23.45-1.61-34.21
			c-0.26-10.65-0.06-21.32-0.06-31.98c-0.82,0-1.64,0-2.46,0c0,22.51,0,45.01,0,67.52c-0.75,0-1.5,0-2.25,0
			c0-11.41,0.28-22.82-0.11-34.22c-0.23-6.66-1.27-13.33-2.4-19.92c-0.94-5.45-4.3-6.43-8.49-3.62c-1.04-2.13-1.99-4.06-2.93-5.99
			c-0.72,0.16-1.45,0.32-2.17,0.47c-0.39,6.23-1.88,12.64-0.89,18.64c1.28,7.79-2.3,8.25-8.17,8.18
			c-27.84-0.32-55.69-0.57-83.53-0.61c-34.79-0.04-69.59,0.15-104.38,0.24c0-20.88,0-41.77,0-62.65c1.6,7.39,3.2,14.78,4.8,22.17
			c0.67-0.15,1.35-0.29,2.02-0.44c-2.27-11.72-4.55-23.44-6.82-35.15c0-5.97,0-11.93,0-17.9c1.52,2.62,3.53,5.07,4.45,7.88
			c2.39,7.36,4.3,14.87,6.4,22.33c0.61-0.16,1.22-0.31,1.83-0.47c-1.64-6.19-3.29-12.39-4.93-18.58c0.3-0.1,0.61-0.21,0.91-0.31
			c1.26,2.35,2.52,4.7,3.77,7.05c0.25-0.11,0.49-0.23,0.74-0.34c-1.09-4.74-2.17-9.49-3.26-14.23c3.46,7.92,6.92,15.85,10.37,23.77
			c0.45-0.19,0.89-0.38,1.34-0.56c-3.69-10.25-7.38-20.51-11.07-30.76c0.87-0.16,1.74-0.32,2.61-0.48c0,0-0.19-0.05-0.19-0.05
			c3.38,1.85,6.76,3.7,9.51,5.21c1.1-4.3,2.31-9.06,3.53-13.83c0,0,0.66,0.2,0.66,0.2c1.19,0.82,2.39,1.64,3.58,2.46
			c-0.11-0.62-0.22-1.23-0.33-1.85c-0.58-1.3-1.15-2.61-1.73-3.91c1.34,0.05,2.67,0.1,4.01,0.15c2.85,2.32,5.66,4.7,8.65,6.82
			c0.25,0.18,1.76-1.4,2.69-2.17c-2.05-2.78-4.1-5.56-6.15-8.34c-0.53-1.25-1.06-2.5-1.59-3.75c-0.13-0.37-0.29-0.73-0.47-1.07
			c-2.06-1.68-4.13-3.37-6.19-5.05l0.2,0.11c2.54,0,5.08,0,7.63,0c-0.36-0.52-0.71-1.03-1.07-1.55c2.89-2.22,5.77-4.44,8.66-6.66
			c6.62,3.08,13.24,6.17,19.86,9.25c0.29-0.63,0.58-1.27,0.87-1.9c-2.67-1.45-5.35-2.91-8.02-4.36c0.21-0.41,0.41-0.82,0.62-1.23
			c3.55,0.72,7.11,1.45,10.66,2.17c0.11-0.9,0.21-1.8,0.32-2.7c-7.55-0.61-15.11-1.23-22.66-1.84c-0.51-1.44-1.02-2.87-1.71-4.83
			c5.04,0.88,10.08,1.75,15.26,2.65c-0.15-1.31-0.3-2.56-0.5-4.27c4.05,0.3,7.6,0.57,11.16,0.83c0.05-0.41,0.1-0.82,0.15-1.24
			c-9.51-1.21-19.03-2.42-28.54-3.63c0.08-0.7,0.16-1.4,0.24-2.11c12.38,1.08,24.76,2.16,37.14,3.24c0.04-0.69,0.08-1.38,0.12-2.08
			c-14.82-0.93-29.65-1.86-44.47-2.79c-0.01-0.25-0.03-0.49-0.04-0.74c17.99,0,35.98,0,54.94,0c-5.9-3.83-13.34,2.1-17.47-5.9
			c2.5-0.4,4.44-0.7,6.23-0.99c-4.52-1.91-9.06-3.83-13.6-5.74c-0.28,0.71-0.56,1.43-0.85,2.14c1.83,0.24,3.66,0.47,5.49,0.71
			c-0.02,0.8-0.04,1.59-0.06,2.39c-10.27,0.61-20.54,1.21-30.81,1.82c-0.06-0.44-0.12-0.88-0.18-1.32c6.52-0.8,13.03-1.6,21.03-2.58
			c-3.24-0.79-4.92-1.19-8.09-1.96c3.06-1.48,4.69-2.27,6.33-3.07c-0.05-0.26-0.09-0.53-0.14-0.79c-8.5,1.67-17,3.34-24.18,4.76
			c-0.75-2.3-1.24-3.8-1.73-5.31c4.19,0.3,8.56,1.5,12.52,0.69c5.12-1.05,12.6,0.28,13.01-9.1c-6.63,2.62-13.19,3.38-19.67,0.2
			c4.81-2.67,11.32-3.1,14.09-8.43c-0.52-0.77-1.03-1.54-1.55-2.31c-3.98,2.16-7.96,4.31-11.94,6.47c-1.21-1.5-2.62-4.42-3.6-4.28
			c-7.09,0.99-8.6-5.27-12.21-8.74c-0.04-0.61-0.08-1.22-0.13-1.83c-0.57-0.04-1.13-0.08-1.7-0.12l0.28-0.19
			c-0.58,0.58-1.17,1.17-1.75,1.75c0,0,0.3-0.19,0.3-0.19c-0.84,0.01-1.69,0.03-2.53,0.04c-0.45,0.82-0.91,1.64-1.36,2.45
			c-0.54,0.56-1.07,1.12-1.61,1.68l0.26,0.01c-0.82-0.17-1.64-0.35-2.46-0.52c0,0,0.13,0.22,0.13,0.22
			c0.14-1.44,0.29-2.88,0.43-4.33c-0.01-0.01-0.02,0.2-0.02,0.2c-0.68-0.36-1.35-0.72-2.03-1.08c-1.98-1.07-3.96-2.15-5.95-3.22
			c0,0,0.16,0.22,0.16,0.22c-0.55-1.57-1.09-3.14-1.64-4.71c0,0,0.11,0.29,0.11,0.29c-0.01-1.83-0.02-3.65-0.02-5.48
			c-0.01-0.39-0.02-0.77-0.04-1.16c0.28-3.89,0.19-7.84,0.9-11.65c1.48-8.02,3.38-15.96,5.11-23.93c-0.29-0.06-0.57-0.11-0.86-0.17
			c-2.71,9.61-5.42,19.21-8.14,28.82c0-48.23,0-96.46,0-144.69c12.53,0,24.91,0,37.29,0c3.41,2.58,6.82,5.16,10.28,7.78
			C165.63,4.6,167,2.3,168.37,0c58.67,0,117.35,0,176.02,0c-1.28,1.73-2.55,3.45-3.61,4.89c1.81,2.53,3.23,4.52,5.38,7.52
			c0.66-3,1.18-5.37,2.06-9.36c1.14,2.65,1.64,3.83,2.14,5c0.72-0.37,1.44-0.74,2.17-1.11c-1.22-2.32-2.44-4.63-3.66-6.95
			C454.78,0,560.69,0,666.6,0c2.87,1.73,5.73,3.46,9.45,5.7c-3.34,2.02-5.21,3.16-7.08,4.29c0.24,0.61,0.49,1.22,0.73,1.83
			c2.18-0.78,4.38-1.51,6.53-2.35c3.01-1.19,6.39-3.93,8.84-3.26c2.16,0.6,3.26,4.99,4.54,7.22c2.76-1.05,5.88-2.24,8.98-3.42
			c-3.79,3.42-6.77,7.22-5.24,12.72c0.34,1.23,1.46,2.51,2.57,3.14c0.45,0.26,2.66-1.12,2.68-1.79c0.14-4.64-0.08-9.3-0.19-13.95
			c1.33-3.37,2.65-6.75,3.98-10.12c0.5,0,0.99,0,1.49,0c1.3,4.04,4.45,8.57,3.53,12.03C705.3,20.04,706.93,26.04,712.84,31.33z
			 M172.38,73.85c-7.89,0-15.78,0-23.67,0c2.75,3.23,5.6,5.44,8.79,6.16c3.89,0.88,8.06,0.5,13.98,0.74
			c0.13-1.09,0.46-3.98,0.79-6.87c0.08,0.22,0.17,0.45,0.25,0.67C172.47,74.32,172.43,74.08,172.38,73.85z M186.63,88.22
			c-0.45-0.58-0.91-1.16-1.36-1.74c3.03-3.07,6.06-6.14,9.04-9.16c-2.19,0-4.35,0-6.51,0c-0.16-0.57-0.33-1.14-0.49-1.71
			c5.96-2.81,11.92-5.62,17.82-8.41c-2.63-1.5-6.2-4.98-7.85-4.23c-7.27,3.3-7.68-1.16-9.08-6.21c-0.84,4.93-1.67,9.86-2.49,14.65
			c-1.65,0-3.43,0-6.08,0c9.06,8.29,0.87,17.63,3.21,24.25c6.79-3.79,13.73-7.68,20.68-11.56c-0.34-0.38-0.68-0.75-1.03-1.13
			C197.2,84.73,191.91,86.48,186.63,88.22z M164.85,89.69c1.16,3.94,1.95,6.63,3.02,10.27c3.21-2.77,5.97-5.14,9.23-7.95
			C172.64,91.17,169.25,90.53,164.85,89.69z M683.88,26.89c-0.62-5.85-1.05-9.93-1.5-14.09C675.24,16.36,675.29,17.8,683.88,26.89z
			 M219.79,189.09c-7.28-9.35-10.25-11.13-15.59-9.7C209.01,182.38,213.43,185.13,219.79,189.09z M170.64,147.94
			c0.59,0.53,1.18,1.06,1.76,1.6c3.86-3.45,7.71-6.91,11.57-10.36c-0.6-0.65-1.19-1.29-1.79-1.94
			C178.34,140.8,174.49,144.37,170.64,147.94z M150.48,19.45c0.74,0.13,1.47,0.26,2.21,0.38c3.53-2.63,7.07-5.27,11.88-8.86
			c-4.94,0.71-8.31,0.38-10.61,1.79C152.13,13.89,151.59,17.14,150.48,19.45z"/>
		<path d="M116.16,356.52c34.79-0.09,69.59-0.29,104.38-0.24c27.84,0.03,55.69,0.28,83.53,0.61c5.86,0.07,9.44-0.39,8.17-8.18
			c-0.98-6,0.5-12.41,0.89-18.64c0.72-0.16,1.45-0.32,2.17-0.47c0.95,1.93,1.89,3.86,2.93,5.99c4.19-2.82,7.56-1.84,8.49,3.62
			c1.13,6.59,2.18,13.25,2.4,19.92c0.39,11.39,0.11,22.81,0.11,34.22c0.75,0,1.5,0,2.25,0c0-22.51,0-45.01,0-67.52
			c0.82,0,1.64,0,2.46,0c0,10.66-0.2,21.33,0.06,31.98c0.26,10.76,0.99,21.51,1.61,34.21c5.91-5.67,9.71-9.32,13.78-13.22
			c1.98,0.77,4.28,1.65,8.03,3.1c-1.14-9.04-2.09-16.62-3.04-24.21c1.01-0.11,2.02-0.23,3.03-0.34c0.79,5.99,1.58,11.98,2.38,17.97
			c0.27,0.01,0.55,0.01,0.82,0.02c0-13.64-0.01-27.29,0.01-40.93c0.01-6.96-0.21-13.94,0.21-20.88c0.39-6.36-2.48-7.89-8.08-6.84
			c-5.3,0.99-10.62,1.81-16.13,2.73c-2.58-6.83,0.68-11.2,4.63-14.95c0.97-0.92,3.77-0.17,5.66,0.17c4.5,0.8,8.97,1.8,14.27,2.89
			c0.32-3.47,0.69-5.61,0.69-7.74c0.2-63.14,0.37-126.28,0.52-189.42c0.02-9.28,0.21-9.63,9.6-9.64
			c35.51-0.04,71.03-0.02,106.54-0.02c0.02,0.62,0.05,1.24,0.07,1.86c-2.46,0-4.91,0-7.37,0c-32.07,0.07-64.14,0.34-96.21,0.08
			c-7.36-0.06-9.85,1.93-9.83,9.63c0.19,62.15-0.07,124.3-0.13,186.45c-0.01,8.43,1.81,10.14,10.02,9.45
			c1.59-0.13,3.04-1.95,5.2-3.42c0,21.29,0.19,42.99-0.11,64.68c-0.1,6.81,2.23,9.36,9.08,9.04c5.29-0.25,7.74-1.83,7.4-7.46
			c-0.36-6.15-0.08-12.34,0.35-18.58c1.03,6.68,1.89,13.39,3.16,20.02c0.71,3.7,1.46,7.74,7.14,3.93c1.37-0.92,4.82,1.86,7.33,1.91
			c7.69,0.15,15.4-0.43,23.09-0.29c11.07,0.2,22.13,0.77,34.9,1.25c0.6-2.3,2.45-6.15,2.48-10.02c0.62-79.05,1.05-158.1,1.45-237.15
			c0.03-6.21-0.72-12.42-0.65-18.62c0.03-2.53,1.3-5.04,2-7.56c0.86,0.12,1.72,0.23,2.58,0.35c0.19,3.06,0.55,6.12,0.55,9.17
			c-0.02,61.88-0.21,123.76-0.07,185.65c0.07,30.07,0.59,60.14,1.33,90.2c0.14,5.63-2.8,5.41-6.38,5.43
			c-14.17,0.09-28.34,0.14-42.51,0.2c-2.64,0.01-5.29,0-9.74,0c4.34,4.26,6.65,7.72,11.53,3.81c1.04-0.83,3.29-0.2,4.99-0.17
			c11.63,0.2,23.26,0.3,34.87,0.75c2.66,0.1,5.26,1.46,7.99,2.27c2.33-3.59,5.07-7.83,8.25-12.75c0.7,2.93,1.19,4.96,1.68,6.99
			c0.73,0.17,1.46,0.35,2.18,0.52c0.88-3.14,2.43-6.25,2.53-9.41c1.33-43.15,2.89-86.31,3.53-129.48
			c0.73-49.67,0.67-99.36,0.81-149.04c0.02-9.18-0.82-18.37-0.99-27.55c-0.14-7.49-4.26-9.89-11.05-9.63
			c-24.27,0.93-48.54,1.99-72.82,2.62c-15.36,0.4-30.74,0.17-46.11,0.13c-7.36-0.02-14.84-1.13-22.06-0.2
			c-9.83,1.27-13.9-4.25-17.25-12.41c60.74,0,121.37,0,183.3,0c0,110.52,0,220.04,0,329.55c5.56-5.35,7.84,0.02,10.57,1.93
			c1.76-1.37,3.28-2.57,4.81-3.76c1.07,2.34,2.98,4.65,3.07,7.03c0.72,19.87,1.4,39.75,1.53,59.63
			c0.23,34.53,0.06,69.06,0.06,103.59c0.7,0.02,1.39,0.03,2.09,0.05c0-6.62-0.1-13.25,0.03-19.87c0.17-8.58,1.38-9.73,10.2-9.85
			c31.32-0.44,62.64-0.89,93.96-1.22c14.64-0.15,29.28-0.03,43.91-0.03c0-0.84,0-1.68,0-2.53c-43.67,0-87.33,0-131,0
			c0-0.34,0-0.68,0-1.02c42.13-0.87,84.26-1.75,126.39-2.62c0-0.38,0.01-0.75,0.01-1.13c-43.1,0-86.21,0-129.31,0
			c-0.17-0.66-0.34-1.32-0.5-1.98c13.52-10.55,27.92-19.25,44.45-25.12c15.52-5.51,30.24-13.26,45.32-20
			c2.94-1.32,5.83-3.04,8.93-3.68c17.37-3.59,27.67-16.67,38.87-28.55c2.2-2.33,4.26-4.81,6.24-7.32c2.85-3.61,5.37-7.49,8.39-10.94
			c3.02-3.45,6.48-6.52,9.75-9.76c0,63.65,0,127.29,0,190.94c-198.89,0-397.79,0-596.68,0c0-59.67,0-119.34,0-179
			c5.89-8.74,5.89-22.97,0-28.34c0-3.48,0-6.96,0-10.44c2.94-0.41,5.88-1.19,8.82-1.18c30.23,0.1,60.46,0.33,90.69,0.5
			c8.05,0.05,16.1,0.01,25.74,0.01c-2.62,7.66-4.89,14.27-7.29,21.28c-2.23-1.53-3.63-2.49-4.95-3.4
			c-1.12,8.83-2.88,17.1-3.02,25.39c-0.15,8.76,1.61,17.54,1.87,26.33c0.23,7.83-0.88,15.88,10.29,19.75c0-20.1,0-39.72,0-61.39
			c24.43,28.19,47.18,54.46,69.94,80.73c0.66-0.41,1.31-0.81,1.97-1.22c0.58-39.49,1.06-78.99,1.84-118.48
			c0.12-6.26-2.07-8.11-8.18-7.97c-34.03,0.8-68.07,1.22-102.11,1.96c-2.8,0.06-5.64,1.36-8.33,2.43
			c-6.96,2.77-13.67,7.57-20.79,8.25c-18.73,1.79-37.64,1.82-56.47,2.55c0-0.99,0-1.99,0-2.98c9.62-1.29,19.24-2.57,28.86-3.86
			c-0.09-0.63-0.18-1.27-0.27-1.9c-9.53,0.93-19.06,1.85-28.59,2.78C116.16,364.47,116.16,360.49,116.16,356.52z M512.07,57.07
			c0,11.61,0,23.21,0.01,34.82c0-11.6,0-23.2,0-34.81c-8.09-0.28-16.19-0.77-24.28-0.8c-31.21-0.09-62.42-0.04-93.63-0.04
			c22.96,1.58,45.93,1.68,68.89,1.55C479.39,57.71,495.73,57.31,512.07,57.07z M477.88,382.79c0.16-0.88,0.33-1.75,0.49-2.63
			c-5.91-0.05-10.03-5.27-17.18-3.2c-6.58,1.91-14.79,3.41-20.73,1.1c-8.6-3.34-16.38-0.64-24.47-0.79
			c-9.09-0.17-18.19,0.42-27.28,0.49c-3.26,0.03-6.52-0.57-9.79-0.68c-1.85-0.06-4.62,1.11-5.36,0.28c-1.2-1.35-1.71-3.98-1.38-5.88
			c1.44-8.27,4.01-16.41,4.81-24.72c1.11-11.57,0.91-23.26,1.46-34.89c0.51-10.71-0.66-11.99-12.69-11.8
			c0,25.54-0.03,51.1,0.03,76.65c0.01,5.43,4.06,5.33,7.94,5.38c17.39,0.21,34.79,0.55,52.18,0.67
			C443.24,382.88,460.56,382.79,477.88,382.79z M222.08,444.32c4.74-3.87,2.34-11.22,2.25-18.83c-3.99,0.18-8.67-0.96-10.05,0.67
			c-6.09,7.25-12.66,4.21-19.56,2.48c-4.48-1.12-9.15-1.48-13.73-2.17c-0.2,0.9-0.4,1.8-0.6,2.7c7.77,7.02,17.61,9.06,27.73,10.73
			C212.17,440.57,216.03,442.36,222.08,444.32z M224.91,404.63c-8.38-0.57-16.69-1.26-25.02-1.65c-6.49-0.3-7.78,4.85-7.86,9.46
			c-0.02,1.26,4.87,3.46,7.65,3.72c5.63,0.54,11.35,0.07,17.03-0.02C226.32,415.98,227.39,414.45,224.91,404.63z M243.41,520.38
			c0,0.59,0,1.18,0,1.78c22.28,0,44.57,0,66.85,0c-0.01-0.59-0.01-1.18-0.02-1.78C287.96,520.38,265.69,520.38,243.41,520.38z
			 M394.56,416.68c-0.08,0.18-0.15,0.37-0.23,0.55c27.99,0,55.97,0,83.96,0c0-0.18,0-0.37,0-0.55
			C450.38,416.68,422.47,416.68,394.56,416.68z M252.66,515.65c0.06,0.36,0.11,0.72,0.17,1.08c18.95,0,37.9,0,56.85,0
			c-0.02-0.36-0.05-0.72-0.07-1.08C290.63,515.65,271.64,515.65,252.66,515.65z M512.26,123.35c-0.09-0.08-0.19-0.16-0.28-0.24
			c0,19.37,0,38.74,0,58.11c0.09,0,0.19,0,0.28,0C512.26,161.92,512.26,142.63,512.26,123.35z M140.47,405.19
			c4.88,7.78,8.15,7.65,13.13,0C149.24,405.19,145.4,405.19,140.47,405.19z M162.72,364c0.12,0.53,0.24,1.05,0.36,1.58
			c7.57-1.12,15.14-2.24,22.71-3.35c-0.14-0.87-0.29-1.74-0.43-2.6C177.81,361.09,170.26,362.54,162.72,364z"/>
		<path class="st0" d="M116.16,374.42c18.84-0.73,37.74-0.76,56.47-2.55c7.12-0.68,13.83-5.48,20.79-8.25
			c2.69-1.07,5.53-2.37,8.33-2.43c34.03-0.74,68.07-1.16,102.11-1.96c6.11-0.14,8.31,1.71,8.18,7.97
			c-0.78,39.49-1.26,78.99-1.84,118.48c-0.66,0.41-1.31,0.81-1.97,1.22c-22.76-26.27-45.52-52.54-69.94-80.73
			c0,21.67,0,41.29,0,61.39c-11.16-3.86-10.06-11.92-10.29-19.75c-0.26-8.79-2.02-17.57-1.87-26.33c0.14-8.29,1.9-16.56,3.02-25.39
			c1.32,0.91,2.72,1.87,4.95,3.4c2.4-7,4.66-13.62,7.29-21.28c-9.64,0-17.69,0.04-25.74-0.01c-30.23-0.17-60.46-0.4-90.69-0.5
			c-2.94-0.01-5.88,0.77-8.82,1.18C116.16,377.4,116.16,375.91,116.16,374.42z"/>
		<path d="M126.07,265.86c1.09,4.74,2.17,9.49,3.26,14.23c-0.25,0.11-0.49,0.23-0.74,0.34c-1.26-2.35-2.52-4.7-3.77-7.05
			c-0.3,0.1-0.61,0.21-0.91,0.31c1.64,6.19,3.29,12.39,4.93,18.58c-0.61,0.16-1.22,0.31-1.83,0.47c-2.1-7.45-4.01-14.97-6.4-22.33
			c-0.91-2.81-2.93-5.26-4.45-7.88c0-9.94,0-19.89,0-29.83c3.01-2.55,6.47-4.73,8.91-7.74c4.13-5.09,10.62-10.67,10.69-16.11
			c0.1-8.8-2.55-18.43-10.35-24.82c-1.28-1.05-3.24-1.26-5.01-1.9c0.62,10.53,1.27,20.08,1.69,29.64c0.18,4.01-0.74,7.55-5.93,7.51
			c0-16.41,0-32.82,0-49.23c0,0,0.64,0.05,0.64,0.05c1.57,0.59,3.14,1.17,4.72,1.76c0,0-0.26-0.01-0.26-0.01
			c2.07-1.45,5.47,4.78,6.76-1.17c0.82,0.17,1.64,0.35,2.46,0.52c0,0-0.19,0.35-0.19,0.35l-0.07-0.37c0.54-0.56,1.07-1.12,1.61-1.68
			c2.3-0.64,4.6-1.28,6.9-1.91c3.62,3.47,5.12,9.73,12.21,8.74c0.98-0.14,2.39,2.78,3.59,4.28c-5.42,0.95-10.33,2.36-8.61,9.67
			c0.72,0.94,1.43,1.88,2.15,2.81c0.49,1.51,0.98,3.01,1.73,5.31c7.18-1.41,15.68-3.08,24.18-4.76c0.05,0.26,0.09,0.53,0.14,0.79
			c-1.63,0.79-3.27,1.59-6.33,3.07c3.18,0.77,4.85,1.18,8.09,1.96c-8,0.98-14.52,1.78-21.03,2.58c0.06,0.44,0.12,0.88,0.18,1.32
			c10.27-0.61,20.54-1.21,30.81-1.82c0.02-0.8,0.04-1.59,0.06-2.39c-1.83-0.24-3.66-0.47-5.49-0.71c0.28-0.71,0.56-1.43,0.85-2.14
			c4.54,1.92,9.07,3.83,13.6,5.74c-1.78,0.28-3.73,0.59-6.23,0.99c4.13,8,11.57,2.07,17.47,5.9c-18.96,0-36.95,0-54.94,0
			c0.01,0.25,0.03,0.49,0.04,0.74c14.82,0.93,29.65,1.86,44.47,2.79c-0.04,0.69-0.08,1.38-0.12,2.08
			c-12.38-1.08-24.76-2.16-37.14-3.24c-0.08,0.7-0.16,1.4-0.24,2.11c9.51,1.21,19.03,2.42,28.54,3.63c-0.05,0.41-0.1,0.82-0.15,1.24
			c-3.56-0.26-7.11-0.53-11.16-0.83c0.2,1.7,0.35,2.96,0.5,4.27c-5.18-0.9-10.22-1.77-15.26-2.65c0.69,1.95,1.2,3.39,1.71,4.82
			c-0.54,0.21-1.09,0.41-1.64,0.62c-2.89,2.22-5.77,4.44-8.66,6.66c0.36,0.52,0.71,1.03,1.07,1.55c-2.54,0-5.08,0-7.63,0
			c-0.87-0.03-1.74-0.07-2.61-0.1c0,0,0.25,0.15,0.25,0.15c-1.66-0.38-3.32-0.75-4.97-1.12c0,0.01,0.02-0.16,0.02-0.16
			c0.09,0.94,0.19,1.88,0.28,2.82l0.27-0.21c-1.1,0.56-2.2,1.11-3.29,1.67c0,0,0.19-0.23,0.19-0.23c-0.55,0.83-1.1,1.65-1.64,2.48
			c0,0-0.09-0.22-0.09-0.22c0.11,1.33,0.22,2.66,0.33,3.99c-0.58,0.48-1.17,0.96-1.75,1.43c0,0,0.11-0.23,0.11-0.23
			c0,0.84,0,1.68,0,2.53c-1.47,1.9-2.95,3.8-4.42,5.7c0.01,1.35,0.02,2.7,0.03,4.06c0,0-0.16-0.34-0.16-0.34
			c0.44,0.97,0.88,1.93,1.32,2.9c-0.87,0.16-1.74,0.32-2.61,0.48C126.51,260.82,126.29,263.34,126.07,265.86z M184.82,206.65
			c-0.01-0.98-0.03-1.97-0.04-2.95c-7.77,0.35-15.55,0.69-23.32,1.04c0.01,0.64,0.02,1.27,0.03,1.91
			C169.26,206.65,177.04,206.65,184.82,206.65z"/>
		<path d="M712.84,360.99c-55.99-1.09-111.98-2.18-167.97-3.3c-1.58-0.03-3.16-0.53-4.65-2.34c57.54-0.6,115.08-1.21,172.62-1.81
			C712.84,356.02,712.84,358.51,712.84,360.99z"/>
		<path class="st0" d="M116.16,219.28c5.2,0.05,6.11-3.5,5.93-7.51c-0.42-9.56-1.08-19.11-1.69-29.64c1.78,0.65,3.74,0.86,5.01,1.9
			c7.8,6.39,10.45,16.01,10.35,24.82c-0.06,5.44-6.56,11.02-10.69,16.11c-2.44,3.01-5.91,5.19-8.91,7.74
			C116.16,228.23,116.16,223.75,116.16,219.28z"/>
		<path d="M702.4,0c-1.33,3.37-2.65,6.75-3.98,10.12c0,0,0.19-0.13,0.19-0.13c-3.12,1.19-6.24,2.38-9,3.43
			c-1.28-2.22-2.39-6.62-4.54-7.22c-2.46-0.68-5.84,2.07-8.84,3.26c-2.15,0.85-4.35,1.57-6.53,2.35c-0.24-0.61-0.49-1.22-0.73-1.83
			c1.87-1.13,3.74-2.27,7.08-4.29c-3.71-2.24-6.58-3.97-9.45-5.7C678.53,0,690.47,0,702.4,0z"/>
		<path d="M712.84,31.33c-5.91-5.29-7.54-11.28-5.42-19.3c0.91-3.46-2.23-7.98-3.53-12.03c2.98,0,5.97,0,8.95,0
			C712.84,10.44,712.84,20.88,712.84,31.33z"/>
		<path class="st0" d="M116.16,389.33c5.89,5.37,5.89,19.6,0,28.34C116.16,408.23,116.16,398.78,116.16,389.33z"/>
		<path d="M348.87,0c1.22,2.32,2.44,4.63,3.66,6.95c-0.72,0.37-1.44,0.74-2.17,1.11c-0.5-1.17-1.01-2.34-2.14-5
			c-0.88,3.99-1.4,6.36-2.06,9.36c-2.15-3-3.57-5-5.38-7.52c1.06-1.43,2.34-3.16,3.61-4.89C345.89,0,347.38,0,348.87,0z"/>
		<path class="st0" d="M116.16,368.45c9.53-0.93,19.06-1.85,28.59-2.78c0.09,0.63,0.18,1.27,0.27,1.9
			c-9.62,1.29-19.24,2.57-28.86,3.86C116.16,370.44,116.16,369.44,116.16,368.45z"/>
		<path d="M116.16,280.44c2.27,11.72,4.55,23.44,6.82,35.15c-0.67,0.15-1.35,0.29-2.02,0.44c-1.6-7.39-3.2-14.78-4.8-22.17
			C116.16,289.39,116.16,284.91,116.16,280.44z"/>
		<path d="M116.16,144.69c2.71-9.61,5.42-19.21,8.14-28.82c0.29,0.06,0.57,0.11,0.86,0.17c-1.73,7.97-3.63,15.91-5.11,23.93
			c-0.71,3.81-0.62,7.76-0.9,11.62c-1,0.16-1.99,0.36-2.99,0.56C116.16,149.67,116.16,147.18,116.16,144.69z"/>
		<path d="M168.37,0c-1.37,2.3-2.74,4.6-4.63,7.78c-3.46-2.62-6.87-5.2-10.28-7.78C158.43,0,163.4,0,168.37,0z"/>
		<path class="st0" d="M116.16,152.15c1-0.2,1.99-0.39,2.99-0.56c0.02,0.42,0.03,0.8,0.04,1.19c0.01,1.83,0.02,3.65,0.02,5.48
			c0,0-0.11-0.29-0.11-0.29c-0.02,1.57-0.03,3.15-0.05,4.72c0,0,0.22-0.16,0.22-0.16c-1.04-0.97-2.08-1.95-3.12-2.92
			C116.16,157.13,116.16,154.64,116.16,152.15z"/>
		<path d="M116.16,159.61c1.04,0.97,2.08,1.95,3.12,2.92c-0.57,1-1.14,2-1.71,3c0,0,0.24,0.12,0.24,0.12
			c-0.55-0.52-1.1-1.04-1.65-1.57C116.16,162.6,116.16,161.1,116.16,159.61z"/>
		<path d="M116.81,170.11l-0.64-0.05c0-1.49,0-2.98,0-4.48c0.55,0.02,1.1,0.05,1.65,0.07c0,0-0.24-0.12-0.24-0.12
			C117.32,167.06,117.06,168.58,116.81,170.11z"/>
		<path class="st0" d="M117.81,165.65c-0.55-0.02-1.1-0.05-1.65-0.07c0-0.5,0-0.99,0-1.49
			C116.71,164.61,117.26,165.13,117.81,165.65z"/>
		<path d="M186.63,88.22c5.29-1.75,10.57-3.5,15.86-5.25c0.34,0.38,0.68,0.75,1.03,1.13c-6.95,3.89-13.9,7.77-20.68,11.56
			c-2.34-6.62,5.85-15.96-3.21-24.25c2.65,0,4.44,0,6.08,0c0.81-4.78,1.65-9.71,2.49-14.65c1.4,5.05,1.81,9.51,9.08,6.21
			c1.65-0.75,5.22,2.73,7.85,4.23c-5.9,2.78-11.86,5.59-17.82,8.41c0.16,0.57,0.33,1.14,0.49,1.71c2.16,0,4.32,0,6.51,0
			c-2.98,3.02-6.01,6.09-9.04,9.16C185.72,87.07,186.17,87.65,186.63,88.22z"/>
		<path d="M148.07,193.1c-0.72-0.94-1.43-1.88-2.15-2.81c2.67-1.8,5.34-3.6,8-5.4c6.48,3.18,13.04,2.42,19.67-0.2
			c-0.4,9.38-7.88,8.04-13.01,9.1C156.63,194.61,152.26,193.41,148.07,193.1z"/>
		<path d="M172.27,73.87c-0.33,2.89-0.66,5.78-0.79,6.87c-5.93-0.24-10.1,0.14-13.98-0.74c-3.19-0.72-6.04-2.93-8.79-6.16
			c7.89,0,15.78,0,23.68,0.01C172.39,73.87,172.27,73.87,172.27,73.87z"/>
		<path d="M128.14,251.21c1.47-1.9,2.95-3.8,4.43-5.7c0-0.84,0-1.68,0-2.53c0,0-0.11,0.23-0.11,0.23c0.57,0,1.14,0.01,1.71,0.01
			c0,0-0.22-0.21-0.22-0.21c1.32,1.05,2.64,2.11,3.96,3.16c0,0-0.16,0.15-0.16,0.15c1.47,0.94,2.95,1.88,4.42,2.82
			c-1.22,4.77-2.43,9.53-3.53,13.83c-2.75-1.51-6.13-3.36-9.51-5.21c-0.38-0.95-0.75-1.9-1.13-2.84c0,0,0.16,0.34,0.16,0.34
			C128.16,253.91,128.15,252.56,128.14,251.21z"/>
		<path class="st0" d="M153.93,184.9c-2.67,1.8-5.34,3.6-8,5.4c-1.72-7.31,3.19-8.72,8.61-9.67c3.98-2.16,7.96-4.31,11.94-6.47
			c0.52,0.77,1.03,1.54,1.55,2.31C165.25,181.79,158.73,182.23,153.93,184.9z"/>
		<path d="M160.71,224.53c0.55-0.21,1.1-0.42,1.64-0.62c7.55,0.62,15.11,1.23,22.66,1.85c-0.11,0.9-0.21,1.8-0.32,2.7
			c-3.55-0.72-7.11-1.45-10.66-2.17c-0.21,0.41-0.41,0.82-0.62,1.23c2.67,1.45,5.35,2.91,8.02,4.36c-0.29,0.63-0.58,1.27-0.87,1.9
			C173.95,230.7,167.33,227.61,160.71,224.53z"/>
		<path d="M126.07,265.86c0.22-2.52,0.44-5.04,0.65-7.56c3.68,10.26,7.37,20.51,11.06,30.77c-0.45,0.19-0.89,0.38-1.34,0.56
			C132.98,281.71,129.53,273.78,126.07,265.86z"/>
		<path d="M698.42,10.12c0.11,4.65,0.33,9.31,0.19,13.95c-0.02,0.68-2.23,2.05-2.68,1.79c-1.11-0.64-2.23-1.91-2.57-3.14
			c-1.53-5.49,1.45-9.3,5.24-12.72C698.61,9.99,698.42,10.12,698.42,10.12z"/>
		<path d="M164.85,89.69c4.4,0.83,7.79,1.48,12.25,2.32c-3.26,2.81-6.02,5.19-9.23,7.95C166.8,96.33,166.01,93.63,164.85,89.69z"/>
		<path d="M683.88,26.89c-8.59-9.09-8.64-10.53-1.5-14.09C682.83,16.96,683.26,21.04,683.88,26.89z"/>
		<path d="M219.79,189.09c-6.36-3.96-10.78-6.71-15.59-9.7C209.53,177.96,212.5,179.74,219.79,189.09z"/>
		<path d="M170.64,147.94c3.85-3.57,7.7-7.14,11.55-10.71c0.6,0.65,1.19,1.29,1.79,1.94c-3.86,3.45-7.71,6.91-11.57,10.36
			C171.82,149,171.23,148.47,170.64,147.94z"/>
		<path d="M150.48,19.45c1.11-2.31,1.65-5.56,3.49-6.69c2.29-1.41,5.66-1.08,10.61-1.79c-4.82,3.59-8.35,6.23-11.88,8.86
			C151.95,19.7,151.22,19.57,150.48,19.45z"/>
		<path class="st0" d="M159.68,250.84c-0.92,0.76-2.43,2.35-2.69,2.17c-2.99-2.12-5.79-4.51-8.65-6.82
			c-1.83-2.04-3.67-4.08-5.5-6.12c1.09,0.07,2.17,0.13,3.26,0.2l-0.24-0.25c0.58,0.59,1.16,1.17,1.75,1.76l-0.27-0.26
			c0.58,0.59,1.16,1.17,1.75,1.76c0,0-0.27-0.24-0.27-0.24c1.59,1.06,3.18,2.11,4.77,3.17c0,0-0.25-0.22-0.25-0.22
			c0.57,0.58,1.15,1.16,1.72,1.74c0,0-0.25-0.2-0.25-0.2c1.57,1.05,3.13,2.1,4.7,3.14C159.52,250.67,159.68,250.84,159.68,250.84z"
			/>
		<path d="M142.85,240.07c1.83,2.04,3.67,4.08,5.5,6.12c-1.34-0.05-2.67-0.1-4.01-0.15c0,0,0.28,0.21,0.28,0.21
			c-0.57-0.51-1.15-1.02-1.72-1.53c-0.48-0.48-0.96-0.97-1.44-1.45c-0.46-0.51-0.92-1.01-1.39-1.52c-0.53-0.57-1.05-1.14-1.58-1.7
			c0,0,0.13,0.21,0.13,0.21c-0.57-0.57-1.14-1.14-1.71-1.71c0,0,0.25,0.21,0.25,0.21c-0.56-0.57-1.13-1.13-1.69-1.7
			c0,0,0.19,0.2,0.19,0.2c-0.02-0.57-0.03-1.14-0.05-1.71c0,0-0.19,0.23-0.19,0.23c1.1-0.56,2.2-1.11,3.29-1.67
			c0,0-0.27,0.21-0.27,0.21c0.51-0.57,1.02-1.13,1.53-1.7c1.05,0.06,2.1,0.11,3.15,0.17c0,0-0.25-0.15-0.25-0.15
			c0.53,1.08,1.05,2.17,1.58,3.25c0,0,0.13-0.3,0.13-0.3c-1,0.49-2.01,0.98-3.01,1.47c0.02,0.51,0.03,1.01,0.04,1.52
			c0.5,0.58,1,1.15,1.5,1.73C143.11,240.31,142.85,240.07,142.85,240.07z"/>
		<path class="st0" d="M153.54,242.5c2.05,2.78,4.1,5.56,6.15,8.34c0,0-0.16-0.17-0.16-0.17c-1.57-1.05-3.13-2.1-4.7-3.14
			c0,0,0.25,0.2,0.25,0.2c-0.57-0.58-1.15-1.16-1.72-1.74c0,0,0.25,0.22,0.25,0.22c-1.59-1.06-3.18-2.11-4.77-3.17
			c0,0,0.27,0.24,0.27,0.24c-0.58-0.59-1.16-1.17-1.75-1.76c0,0,0.27,0.26,0.27,0.26c-0.58-0.59-1.16-1.17-1.75-1.76
			c0,0,0.24,0.25,0.24,0.25c-0.08-0.57-0.15-1.15-0.23-1.72c1.04-0.01,2.09-0.02,3.13-0.02
			C150.53,239.85,152.03,241.18,153.54,242.5z"/>
		<path class="st0" d="M116.81,170.11c0.25-1.52,0.51-3.05,0.76-4.57c0.57-1,1.14-2,1.71-3c0,0-0.22,0.16-0.22,0.16
			c0.56,0,1.12-0.01,1.69-0.01c0,0-0.16-0.22-0.16-0.22c-0.16,1.33-0.33,2.67-0.48,4.02c0.01,0.02,0.32,0.39,0.32,0.39
			s-0.29-0.55-0.29-0.55c2.67,1.53,5.35,3.05,8.02,4.58c0,0-0.13-0.22-0.13-0.22c-1.29,5.96-4.69-0.28-6.76,1.17
			c0,0,0.17-0.29,0.17-0.29s0.09,0.3,0.09,0.3C119.95,171.28,118.38,170.69,116.81,170.11z"/>
		<path d="M120.09,166.46c0.16-1.33,0.33-2.67,0.49-4c1.98,1.07,3.96,2.15,5.95,3.22c0,0-0.11-0.21-0.11-0.21
			c0.72,0.37,1.45,0.74,2.17,1.11c-0.14,1.44-0.29,2.88-0.43,4.32c-2.67-1.53-5.35-3.05-8.02-4.58
			C120.13,166.32,120.09,166.46,120.09,166.46z"/>
		<path class="st0" d="M138.73,167.6c-2.3,0.64-4.6,1.28-6.9,1.91c0.45-0.82,0.91-1.64,1.36-2.45c0.84-0.01,1.69-0.03,2.53-0.04
			c0,0-0.3,0.19-0.29,0.19c0.58-0.58,1.17-1.17,1.75-1.75c0,0-0.28,0.19-0.28,0.19c0.57,0.04,1.13,0.08,1.7,0.12
			C138.64,166.38,138.68,166.99,138.73,167.6z"/>
		<path d="M149.02,238.53c-1.04,0.01-2.09,0.02-3.13,0.02c0,0,0.24,0.24,0.24,0.24c-0.51-1.07-1.03-2.13-1.54-3.2
			c0,0-0.13,0.3-0.13,0.3c0.28-1.09,0.55-2.18,0.83-3.26c2.06,1.68,4.13,3.37,6.19,5.05c-1.13-0.47-2.25-0.95-3.37-1.42
			c0.27,0.84,0.54,1.68,0.81,2.52L149.02,238.53z"/>
		<path class="st0" d="M142.17,249.15c-1.47-0.94-2.95-1.88-4.42-2.82c0.23-1.09,0.46-2.19,0.69-3.28c0.57,0.07,1.13,0.13,1.7,0.2
			c0,0-0.25-0.21-0.25-0.21c0.58,0.57,1.15,1.15,1.73,1.72c0,0-0.22-0.21-0.22-0.21c0.57,0.58,1.15,1.15,1.72,1.73l-0.23-0.23
			c0.01,1.05,0.03,2.09,0.04,3.14l-0.11,0.16C142.83,249.34,142.17,249.15,142.17,249.15z"/>
		<path class="st0" d="M146.08,249.95c0.11,0.62,0.22,1.23,0.33,1.85c-1.19-0.82-2.39-1.64-3.58-2.46c0,0,0.11-0.16,0.11-0.16
			C143.98,249.44,145.03,249.7,146.08,249.95z"/>
		<path d="M153.54,242.5c-1.51-1.32-3.01-2.65-4.52-3.97c0,0-0.11,0.25-0.11,0.25c1.01-0.01,2.02-0.02,3.03-0.03
			C152.48,240,153.01,241.25,153.54,242.5z"/>
		<path class="st0" d="M151.95,238.75c-1.01,0.01-2.02,0.02-3.03,0.03c-0.27-0.84-0.54-1.68-0.81-2.52
			c1.12,0.47,2.25,0.94,3.37,1.42C151.66,238.02,151.82,238.38,151.95,238.75z"/>
		<path d="M119.21,158.26c-0.01-1.83-0.02-3.65-0.02-5.48C119.2,154.61,119.2,156.44,119.21,158.26z"/>
		<path d="M120.74,162.68c-0.56,0-1.12,0.01-1.69,0.01c0.02-1.57,0.03-3.15,0.05-4.72C119.65,159.54,120.2,161.11,120.74,162.68z"/>
		<path class="st0" d="M145.29,232.62c-0.28,1.09-0.55,2.18-0.83,3.26c-0.53-1.08-1.05-2.17-1.58-3.25c0.87,0.03,1.74,0.07,2.61,0.1
			C145.49,232.73,145.29,232.62,145.29,232.62z"/>
		<path d="M146.08,249.95c-1.05-0.26-2.09-0.51-3.14-0.77c-0.01-1.05-0.03-2.09-0.04-3.14c0.58,0.07,1.16,0.14,1.74,0.2
			c0,0-0.28-0.21-0.28-0.21C144.92,247.34,145.5,248.65,146.08,249.95z"/>
		<path d="M126.53,165.69c0.68,0.36,1.35,0.72,2.03,1.07c-0.71-0.43-1.42-0.86-2.13-1.28C126.42,165.47,126.53,165.69,126.53,165.69
			z"/>
		<path class="st0" d="M128.01,254.92c0.38,0.95,0.75,1.89,1.13,2.84c0,0.01,0.18,0.06,0.19,0.06
			C128.88,256.85,128.44,255.89,128.01,254.92z"/>
		<path d="M172.27,73.87c0,0,0.12-0.01,0.12-0.02c0.04,0.22,0.09,0.46,0.14,0.69C172.44,74.32,172.35,74.1,172.27,73.87z"/>
		<polygon class="st0" points="130.22,171.19 130.3,171.56 130.48,171.2 		"/>
		<path d="M135.72,167.02c-0.84,0.01-1.69,0.03-2.53,0.04C134.04,167.04,134.88,167.03,135.72,167.02z"/>
		<path d="M137.18,165.46c-0.58,0.58-1.17,1.17-1.75,1.75C136.01,166.63,136.6,166.04,137.18,165.46z"/>
		<path class="st0" d="M126.42,165.47c0.71,0.43,1.42,0.85,2.13,1.28c0.01,0.01,0.02-0.2,0.03-0.19
			C127.86,166.21,127.14,165.84,126.42,165.47z"/>
		<path d="M138.6,165.77c-0.57-0.04-1.13-0.08-1.7-0.12C137.47,165.69,138.03,165.73,138.6,165.77z"/>
		<path class="st0" d="M477.88,382.79c-17.32,0-34.64,0.09-51.97-0.03c-17.39-0.12-34.79-0.46-52.18-0.67
			c-3.88-0.05-7.92,0.05-7.94-5.38c-0.06-25.56-0.03-51.12-0.03-76.65c12.03-0.19,13.2,1.09,12.69,11.8
			c-0.55,11.63-0.35,23.32-1.46,34.89c-0.8,8.32-3.37,16.45-4.81,24.72c-0.33,1.9,0.18,4.54,1.38,5.88
			c0.74,0.83,3.51-0.34,5.36-0.28c3.27,0.11,6.53,0.71,9.79,0.68c9.1-0.08,18.2-0.67,27.28-0.49c8.09,0.15,15.87-2.55,24.47,0.79
			c5.94,2.31,14.15,0.81,20.73-1.1c7.15-2.08,11.27,3.15,17.18,3.2C478.21,381.03,478.04,381.91,477.88,382.79z"/>
		<path class="st0" d="M222.08,444.32c-6.04-1.96-9.91-3.75-13.96-4.42c-10.12-1.67-19.95-3.71-27.73-10.73c0.2-0.9,0.4-1.8,0.6-2.7
			c4.58,0.7,9.25,1.05,13.73,2.17c6.9,1.73,13.46,4.77,19.56-2.48c1.38-1.64,6.05-0.5,10.05-0.67
			C224.41,433.1,226.81,440.45,222.08,444.32z"/>
		<path class="st0" d="M224.91,404.63c2.47,9.82,1.41,11.35-8.21,11.51c-5.68,0.1-11.41,0.56-17.03,0.02
			c-2.78-0.27-7.67-2.46-7.65-3.72c0.08-4.62,1.37-9.77,7.86-9.46C208.22,403.37,216.54,404.06,224.91,404.63z"/>
		<path class="st0" d="M512.06,57.06c-16.33,0.26-32.67,0.65-49,0.74c-22.96,0.13-45.93,0.03-68.89-1.55
			c31.21,0,62.42-0.06,93.63,0.04c8.1,0.02,16.19,0.52,24.28,0.8C512.08,57.08,512.06,57.06,512.06,57.06z"/>
		<path class="st0" d="M243.41,520.38c22.28,0,44.55,0,66.83,0c0.01,0.59,0.01,1.18,0.02,1.78c-22.28,0-44.57,0-66.85,0
			C243.41,521.56,243.41,520.97,243.41,520.38z"/>
		<path class="st0" d="M394.56,416.68c27.91,0,55.82,0,83.73,0c0,0.18,0,0.37,0,0.55c-27.99,0-55.97,0-83.96,0
			C394.4,417.05,394.48,416.87,394.56,416.68z"/>
		<path class="st0" d="M252.66,515.65c18.98,0,37.97,0,56.95,0c0.02,0.36,0.05,0.72,0.07,1.08c-18.95,0-37.9,0-56.85,0
			C252.78,516.37,252.72,516.01,252.66,515.65z"/>
		<path class="st0" d="M512.26,123.35c0,19.29,0,38.57,0,57.86c-0.09,0-0.19,0-0.28,0c0-19.37,0-38.74,0-58.11
			C512.08,123.18,512.17,123.27,512.26,123.35z"/>
		<path class="st0" d="M140.47,405.19c4.92,0,8.77,0,13.13,0C148.62,412.84,145.35,412.98,140.47,405.19z"/>
		<path class="st0" d="M162.72,364c7.54-1.46,15.09-2.92,22.63-4.38c0.14,0.87,0.29,1.74,0.43,2.6c-7.57,1.12-15.14,2.24-22.71,3.35
			C162.96,365.06,162.84,364.53,162.72,364z"/>
		<path class="st0" d="M512.08,57.08c0,11.6,0,23.2-0.01,34.81c-0.01-11.61-0.01-23.21-0.01-34.83
			C512.06,57.06,512.08,57.08,512.08,57.08z"/>
		<path class="st0" d="M184.82,206.65c-7.78,0-15.55,0-23.33,0c-0.01-0.64-0.02-1.27-0.03-1.91c7.77-0.35,15.55-0.69,23.32-1.04
			C184.79,204.68,184.8,205.66,184.82,206.65z"/>
		<path class="st0" d="M143.13,232.78c-1.05-0.06-2.1-0.11-3.15-0.17l0.17,0.15c-0.67-0.37-1.33-0.74-2-1.11
			C139.81,232.03,141.47,232.41,143.13,232.78z"/>
		<path class="st0" d="M134.2,241.78c-0.11-1.33-0.22-2.66-0.32-3.99c0.6,0.25,1.2,0.5,1.79,0.76c-0.57,1.02-1.14,2.05-1.71,3.07
			C133.96,241.62,134.2,241.78,134.2,241.78z"/>
		<path class="st0" d="M128.14,251.21c0.01,1.35,0.02,2.7,0.03,4.06C128.16,253.91,128.15,252.56,128.14,251.21z"/>
		<path class="st0" d="M138.72,234.11c-1.1,0.56-2.2,1.11-3.29,1.67C136.52,235.22,137.62,234.66,138.72,234.11z"/>
		<path class="st0" d="M132.56,242.99c0,0.84,0,1.68,0,2.53C132.56,244.67,132.56,243.83,132.56,242.99z"/>
		<path d="M135.67,238.55c-0.6-0.25-1.19-0.5-1.79-0.76c0,0,0.09,0.22,0.09,0.22c0.57-0.25,1.13-0.51,1.7-0.76
			c0,0-0.19-0.2-0.19-0.2c-0.01,0.57-0.02,1.15-0.02,1.72C135.45,238.78,135.67,238.55,135.67,238.55z"/>
		<path class="st0" d="M135.67,237.26c-0.57,0.25-1.13,0.51-1.7,0.76c0.55-0.83,1.1-1.65,1.64-2.48
			C135.63,236.12,135.65,236.69,135.67,237.26z"/>
		<path class="st0" d="M134.17,243.23c-0.57,0-1.14-0.01-1.71-0.01c0.58-0.48,1.17-0.96,1.75-1.43c0,0-0.24-0.17-0.24-0.17
			C134.03,242.16,134.1,242.69,134.17,243.23z"/>
		<path class="st0" d="M139.98,232.61c-0.51,0.57-1.02,1.13-1.53,1.7c-0.09-0.94-0.19-1.88-0.27-2.81c0.66,0.43,1.31,0.85,1.97,1.27
			C140.15,232.77,139.98,232.61,139.98,232.61z"/>
		<path d="M140.15,232.77c-0.66-0.42-1.31-0.84-1.97-1.27c0-0.01-0.02,0.16-0.02,0.16C138.82,232.02,139.48,232.4,140.15,232.77z"/>
		<polygon points="121.53,171.86 121.44,171.56 121.27,171.85 		"/>
		<path d="M134.17,243.23c-0.07-0.54-0.14-1.07-0.21-1.61c0.57-1.02,1.14-2.05,1.71-3.07c0,0-0.22,0.23-0.22,0.23
			c0.57-0.01,1.14-0.02,1.72-0.02c0,0-0.25-0.21-0.25-0.21c0.57,0.57,1.14,1.14,1.71,1.71c0,0-0.13-0.21-0.13-0.21
			c-0.02,0.57-0.04,1.13-0.06,1.7l0.15-0.21c0.01,0.58,0.02,1.17,0.03,1.75l-0.18-0.23c-0.23,1.09-0.46,2.19-0.69,3.28
			c0,0,0.16-0.15,0.16-0.15c-1.32-1.05-2.64-2.11-3.96-3.16C133.95,243.02,134.17,243.23,134.17,243.23z"/>
		<path class="st0" d="M133.95,243.02c1.32,1.05,2.64,2.11,3.96,3.16C136.59,245.13,135.27,244.07,133.95,243.02z"/>
		<path d="M154.82,247.53c1.57,1.05,3.13,2.1,4.7,3.14C157.96,249.62,156.39,248.57,154.82,247.53z"/>
		<path d="M148.83,243.05c1.59,1.06,3.18,2.11,4.77,3.17C152.01,245.16,150.42,244.1,148.83,243.05z"/>
		<path d="M145.89,238.55c0.08,0.57,0.15,1.15,0.23,1.72c-1.09-0.07-2.17-0.13-3.26-0.2c0,0,0.26,0.24,0.26,0.24
			c-0.07-0.57-0.14-1.14-0.2-1.72c1.07,0.07,2.14,0.13,3.21,0.2L145.89,238.55z"/>
		<path d="M147.36,241.53c0.58,0.59,1.16,1.17,1.75,1.76C148.52,242.7,147.94,242.11,147.36,241.53z"/>
		<path d="M145.88,240.02c0.58,0.59,1.16,1.17,1.75,1.76C147.04,241.2,146.46,240.61,145.88,240.02z"/>
		<path d="M153.35,245.99c0.57,0.58,1.15,1.16,1.72,1.74C154.5,247.15,153.92,246.57,153.35,245.99z"/>
		<path class="st0" d="M146.12,238.79c-1.07-0.07-2.14-0.13-3.21-0.2c0,0,0.21,0.17,0.21,0.17c-0.56-0.58-1.12-1.16-1.68-1.74
			c0,0,0.13,0.04,0.13,0.04c1-0.49,2.01-0.98,3.01-1.47C145.1,236.66,145.61,237.72,146.12,238.79z"/>
		<path class="st0" d="M141.61,238.58c-0.01-0.51-0.03-1.01-0.04-1.52c0,0-0.13-0.04-0.13-0.04c0,0.59,0,1.18,0,1.76L141.61,238.58z
			"/>
		<path class="st0" d="M137.17,238.75c-0.57,0.01-1.14,0.02-1.72,0.02c0.01-0.57,0.02-1.15,0.02-1.72
			C136.04,237.62,136.6,238.19,137.17,238.75z"/>
		<path class="st0" d="M141.47,243.26c0.48,0.48,0.96,0.97,1.44,1.45c0,0,0.19-0.17,0.19-0.17c-0.57,0-1.13,0-1.7,0
			c0,0,0.22,0.21,0.22,0.21c0-0.57,0-1.13,0-1.7C141.62,243.07,141.47,243.26,141.47,243.26z"/>
		<path class="st0" d="M144.63,246.25c-0.58-0.07-1.16-0.14-1.74-0.2c0,0,0.23,0.23,0.23,0.23c-0.01-0.58-0.02-1.15-0.03-1.73
			c0,0-0.19,0.17-0.19,0.17C143.48,245.22,144.06,245.74,144.63,246.25z"/>
		<path class="st0" d="M140.08,241.75c0.46,0.51,0.92,1.01,1.39,1.52c0,0,0.15-0.2,0.15-0.2c-0.58-0.01-1.16-0.02-1.73-0.02
			c0,0,0.25,0.21,0.25,0.21c0-0.57,0-1.13,0-1.7C140.14,241.56,140.08,241.75,140.08,241.75z"/>
		<path class="st0" d="M142.91,238.59c0.07,0.57,0.14,1.14,0.2,1.72c-0.5-0.58-1-1.15-1.5-1.73c0,0-0.17,0.21-0.17,0.21
			c0.56-0.01,1.12-0.02,1.68-0.03L142.91,238.59z"/>
		<path class="st0" d="M138.44,241.74c0.02-0.57,0.04-1.13,0.06-1.7c0.53,0.57,1.05,1.14,1.58,1.7c0,0,0.06-0.19,0.06-0.19
			C139.57,241.62,139,241.68,138.44,241.74z"/>
		<path class="st0" d="M138.63,240.25c-0.57-0.57-1.14-1.14-1.71-1.71C137.49,239.11,138.06,239.68,138.63,240.25z"/>
		<path d="M120.13,166.32l0.29,0.55c0,0-0.31-0.36-0.32-0.39C120.09,166.46,120.13,166.32,120.13,166.32z"/>
		<path d="M139.88,243.04c0.58,0.01,1.16,0.02,1.73,0.02c0,0.56,0,1.13,0,1.7C141.04,244.19,140.46,243.61,139.88,243.04z"/>
		<path d="M143.1,244.55c0.01,0.58,0.02,1.15,0.03,1.73c-0.57-0.58-1.15-1.15-1.72-1.73C141.97,244.55,142.53,244.55,143.1,244.55z"
			/>
		<path d="M138.44,241.74c0.57-0.06,1.13-0.12,1.7-0.19c0,0.57,0,1.13,0,1.7c-0.57-0.07-1.13-0.13-1.7-0.2c0,0,0.18,0.24,0.18,0.23
			c-0.01-0.58-0.02-1.17-0.03-1.75L138.44,241.74z"/>
		<path class="st0" d="M138.58,241.54c0.01,0.58,0.02,1.17,0.03,1.75C138.61,242.7,138.6,242.12,138.58,241.54z"/>
		<path d="M143.12,238.76c-0.56,0.01-1.12,0.02-1.68,0.03c0-0.59,0-1.18,0-1.76C142,237.6,142.56,238.18,143.12,238.76z"/>
	</g>
</g>
</svg>
